<mxfile host="app.diagrams.net" modified="2023-10-17T14:26:58.520Z" agent="Mozilla/5.0 (Macintosh; Intel Mac OS X 10_15_7) AppleWebKit/605.1.15 (KHTML, like Gecko) Version/16.5 Safari/605.1.15" version="22.0.0" etag="40zinAH3A3oYEKsG_AzG" type="github">
  <diagram name="Page-1" id="GKt1f23NxIhI0xPWAr28">
    <mxGraphModel>
      <root>
        <mxCell id="0" />
        <mxCell id="1" parent="0" />
      </root>
    </mxGraphModel>
  </diagram>
</mxfile>
